<mxfile host="65bd71144e">
    <diagram id="11fw0oOm78VSAnQvYEEa" name="Page-1">
        <mxGraphModel dx="752" dy="1364" grid="1" gridSize="10" guides="1" tooltips="1" connect="1" arrows="1" fold="1" page="1" pageScale="1" pageWidth="827" pageHeight="1169" math="0" shadow="0">
            <root>
                <mxCell id="0"/>
                <mxCell id="1" parent="0"/>
                <mxCell id="13" value="" style="edgeStyle=none;html=1;" parent="1" source="14" edge="1">
                    <mxGeometry relative="1" as="geometry">
                        <mxPoint x="175" y="-751" as="targetPoint"/>
                    </mxGeometry>
                </mxCell>
                <mxCell id="14" value="Start" style="ellipse;whiteSpace=wrap;html=1;" parent="1" vertex="1">
                    <mxGeometry x="115" y="-800" width="120" height="29" as="geometry"/>
                </mxCell>
                <mxCell id="15" value="" style="edgeStyle=none;html=1;fontSize=12;" parent="1" edge="1">
                    <mxGeometry relative="1" as="geometry">
                        <mxPoint x="175" y="-721" as="sourcePoint"/>
                        <mxPoint x="175" y="-700" as="targetPoint"/>
                    </mxGeometry>
                </mxCell>
                <mxCell id="16" value="" style="edgeStyle=none;html=1;fontSize=12;" parent="1" edge="1">
                    <mxGeometry relative="1" as="geometry">
                        <mxPoint x="175" y="-549" as="sourcePoint"/>
                        <mxPoint x="175" y="-529" as="targetPoint"/>
                    </mxGeometry>
                </mxCell>
                <mxCell id="17" value="" style="edgeStyle=none;html=1;fontSize=12;" parent="1" edge="1">
                    <mxGeometry relative="1" as="geometry">
                        <mxPoint x="175" y="-488" as="sourcePoint"/>
                        <mxPoint x="175" y="-469" as="targetPoint"/>
                    </mxGeometry>
                </mxCell>
                <mxCell id="18" value="" style="edgeStyle=none;html=1;fontSize=12;" parent="1" target="19" edge="1">
                    <mxGeometry relative="1" as="geometry">
                        <mxPoint x="175" y="-429" as="sourcePoint"/>
                    </mxGeometry>
                </mxCell>
                <mxCell id="19" value="End" style="ellipse;whiteSpace=wrap;html=1;" parent="1" vertex="1">
                    <mxGeometry x="115" y="-409" width="120" height="30" as="geometry"/>
                </mxCell>
                <mxCell id="20" value="" style="edgeStyle=none;html=1;fontSize=12;" parent="1" target="22" edge="1">
                    <mxGeometry relative="1" as="geometry">
                        <mxPoint x="175" y="-660" as="sourcePoint"/>
                    </mxGeometry>
                </mxCell>
                <mxCell id="21" value="" style="edgeStyle=none;html=1;fontSize=12;" parent="1" source="22" edge="1">
                    <mxGeometry relative="1" as="geometry">
                        <mxPoint x="175" y="-590" as="targetPoint"/>
                    </mxGeometry>
                </mxCell>
                <mxCell id="22" value="&lt;div style=&quot;color: rgb(212 , 212 , 212) ; font-family: &amp;#34;consolas&amp;#34; , &amp;#34;courier new&amp;#34; , monospace ; font-size: 14px ; line-height: 19px&quot;&gt;&amp;nbsp;-&amp;gt;&amp;nbsp;&lt;/div&gt;" style="shape=parallelogram;perimeter=parallelogramPerimeter;whiteSpace=wrap;html=1;fixedSize=1;labelBackgroundColor=none;fontSize=12;" parent="1" vertex="1">
                    <mxGeometry x="115" y="-640" width="120" height="30" as="geometry"/>
                </mxCell>
                <mxCell id="23" value="&lt;div style=&quot;font-family: &amp;#34;consolas&amp;#34; , &amp;#34;courier new&amp;#34; , monospace ; line-height: 19px&quot;&gt;&lt;font style=&quot;font-size: 12px&quot; color=&quot;#ccffff&quot;&gt;stringArray = [&quot;Hello&quot;, &quot;2&quot;,&lt;/font&gt;&lt;/div&gt;&lt;span style=&quot;color: rgb(204 , 255 , 255) ; font-family: &amp;#34;consolas&amp;#34; , &amp;#34;courier new&amp;#34; , monospace&quot;&gt;&quot;world&quot;,&lt;/span&gt;&lt;div style=&quot;font-family: &amp;#34;consolas&amp;#34; , &amp;#34;courier new&amp;#34; , monospace ; line-height: 19px&quot;&gt;&lt;font style=&quot;font-size: 12px&quot; color=&quot;#ccffff&quot;&gt;&amp;nbsp;&quot;:-)&quot;]&lt;/font&gt;&lt;/div&gt;" style="whiteSpace=wrap;html=1;" parent="1" vertex="1">
                    <mxGeometry x="20" y="-770" width="300" height="50" as="geometry"/>
                </mxCell>
                <mxCell id="25" value="PrintStringArray(&amp;nbsp;&lt;span style=&quot;color: rgb(212 , 212 , 212) ; font-family: &amp;#34;consolas&amp;#34; , &amp;#34;courier new&amp;#34; , monospace&quot;&gt;stringArray&lt;/span&gt;)" style="shape=process;whiteSpace=wrap;html=1;backgroundOutline=1;size=0.03225806451612903;" parent="1" vertex="1">
                    <mxGeometry x="20" y="-700" width="310" height="40" as="geometry"/>
                </mxCell>
                <mxCell id="26" value="sizeNewArray = SearchStringsWithOrEqual3Symbols(stringArray)" style="shape=process;whiteSpace=wrap;html=1;backgroundOutline=1;size=0.03389830508474576;" parent="1" vertex="1">
                    <mxGeometry x="30" y="-590" width="310" height="41" as="geometry"/>
                </mxCell>
                <mxCell id="27" value="newStringArray = CreateArrayWithOrEqual3Symbols&lt;br&gt;(stringArray, sizeNewArray)" style="shape=process;whiteSpace=wrap;html=1;backgroundOutline=1;size=0.03389830508474576;" parent="1" vertex="1">
                    <mxGeometry x="20" y="-530" width="330" height="41" as="geometry"/>
                </mxCell>
                <mxCell id="28" value="PrintStringArray( newStringArray )" style="shape=process;whiteSpace=wrap;html=1;backgroundOutline=1;size=0.03225806451612903;" parent="1" vertex="1">
                    <mxGeometry x="20" y="-470" width="310" height="40" as="geometry"/>
                </mxCell>
                <mxCell id="29" value="" style="edgeStyle=none;html=1;fontSize=12;" parent="1" edge="1">
                    <mxGeometry relative="1" as="geometry">
                        <mxPoint x="545" y="-720.9999999999998" as="sourcePoint"/>
                        <mxPoint x="545" y="-701" as="targetPoint"/>
                    </mxGeometry>
                </mxCell>
                <mxCell id="30" value="" style="edgeStyle=none;html=1;fontSize=12;" parent="1" edge="1">
                    <mxGeometry relative="1" as="geometry">
                        <mxPoint x="545" y="-670" as="sourcePoint"/>
                        <mxPoint x="545" y="-650" as="targetPoint"/>
                    </mxGeometry>
                </mxCell>
                <mxCell id="31" value="" style="edgeStyle=none;html=1;fontSize=12;" parent="1" edge="1">
                    <mxGeometry relative="1" as="geometry">
                        <mxPoint x="545" y="-610" as="sourcePoint"/>
                        <mxPoint x="545" y="-580" as="targetPoint"/>
                    </mxGeometry>
                </mxCell>
                <mxCell id="32" value="" style="edgeStyle=none;html=1;fontSize=12;" parent="1" edge="1">
                    <mxGeometry relative="1" as="geometry">
                        <mxPoint x="545" y="-530" as="sourcePoint"/>
                        <mxPoint x="545" y="-510" as="targetPoint"/>
                    </mxGeometry>
                </mxCell>
                <mxCell id="33" value="Yes" style="text;html=1;strokeColor=none;fillColor=none;align=center;verticalAlign=middle;whiteSpace=wrap;rounded=0;labelBackgroundColor=none;fontSize=12;" parent="1" vertex="1">
                    <mxGeometry x="540" y="-540" width="60" height="30" as="geometry"/>
                </mxCell>
                <mxCell id="34" value="" style="edgeStyle=none;html=1;fontSize=12;" parent="1" edge="1">
                    <mxGeometry relative="1" as="geometry">
                        <mxPoint x="545" y="-420" as="sourcePoint"/>
                        <mxPoint x="545" y="-400" as="targetPoint"/>
                    </mxGeometry>
                </mxCell>
                <mxCell id="35" value="" style="edgeStyle=none;html=1;fontSize=12;" parent="1" source="37" edge="1">
                    <mxGeometry relative="1" as="geometry">
                        <mxPoint x="545" y="-761.9999999999999" as="targetPoint"/>
                    </mxGeometry>
                </mxCell>
                <mxCell id="36" value="" style="edgeStyle=none;html=1;fontSize=12;" parent="1" source="37" edge="1">
                    <mxGeometry relative="1" as="geometry">
                        <mxPoint x="545" y="-761.9999999999999" as="targetPoint"/>
                    </mxGeometry>
                </mxCell>
                <mxCell id="37" value="Start" style="ellipse;whiteSpace=wrap;html=1;" parent="1" vertex="1">
                    <mxGeometry x="485" y="-810" width="120" height="30" as="geometry"/>
                </mxCell>
                <mxCell id="38" value="SearchStringsWithOrEqual3Symbols( stringArray )" style="shape=process;whiteSpace=wrap;html=1;backgroundOutline=1;size=0.03389830508474576;" parent="1" vertex="1">
                    <mxGeometry x="390" y="-762" width="310" height="41" as="geometry"/>
                </mxCell>
                <mxCell id="39" value="numberOfStrings = 0;" style="whiteSpace=wrap;html=1;" parent="1" vertex="1">
                    <mxGeometry x="460" y="-701" width="170" height="31" as="geometry"/>
                </mxCell>
                <mxCell id="51" style="edgeStyle=elbowEdgeStyle;html=1;exitX=1;exitY=0.5;exitDx=0;exitDy=0;" parent="1" source="40" target="43" edge="1">
                    <mxGeometry relative="1" as="geometry">
                        <Array as="points">
                            <mxPoint x="700" y="-530"/>
                        </Array>
                    </mxGeometry>
                </mxCell>
                <mxCell id="40" value="i = 0; i &amp;lt; stringArray.Length; i++" style="shape=hexagon;perimeter=hexagonPerimeter2;whiteSpace=wrap;html=1;fixedSize=1;labelBackgroundColor=none;fontSize=12;" parent="1" vertex="1">
                    <mxGeometry x="440" y="-650" width="210" height="40" as="geometry"/>
                </mxCell>
                <mxCell id="46" value="" style="edgeStyle=orthogonalEdgeStyle;html=1;entryX=0;entryY=0.5;entryDx=0;entryDy=0;exitX=0;exitY=0.75;exitDx=0;exitDy=0;" parent="1" source="42" target="40" edge="1">
                    <mxGeometry relative="1" as="geometry">
                        <mxPoint x="450" y="-490" as="sourcePoint"/>
                        <mxPoint x="380" y="-640" as="targetPoint"/>
                        <Array as="points">
                            <mxPoint x="390" y="-488"/>
                            <mxPoint x="390" y="-630"/>
                        </Array>
                    </mxGeometry>
                </mxCell>
                <mxCell id="49" style="edgeStyle=none;html=1;exitX=0;exitY=0.5;exitDx=0;exitDy=0;" parent="1" source="41" edge="1">
                    <mxGeometry relative="1" as="geometry">
                        <mxPoint x="390" y="-554.8275862068965" as="targetPoint"/>
                    </mxGeometry>
                </mxCell>
                <mxCell id="41" value="stringArray[i].Length &amp;lt;4&amp;nbsp;" style="rhombus;whiteSpace=wrap;html=1;labelBackgroundColor=none;" parent="1" vertex="1">
                    <mxGeometry x="430" y="-580" width="230" height="50" as="geometry"/>
                </mxCell>
                <mxCell id="42" value="&lt;span&gt;numberOfStrings++&lt;/span&gt;" style="whiteSpace=wrap;html=1;labelBackgroundColor=none;" parent="1" vertex="1">
                    <mxGeometry x="460" y="-510" width="170" height="30" as="geometry"/>
                </mxCell>
                <mxCell id="43" value="return numberOfStrings" style="shape=parallelogram;perimeter=parallelogramPerimeter;whiteSpace=wrap;html=1;fixedSize=1;labelBackgroundColor=none;" parent="1" vertex="1">
                    <mxGeometry x="450" y="-460" width="190" height="40" as="geometry"/>
                </mxCell>
                <mxCell id="44" value="End" style="ellipse;whiteSpace=wrap;html=1;" parent="1" vertex="1">
                    <mxGeometry x="485" y="-400" width="120" height="30" as="geometry"/>
                </mxCell>
                <mxCell id="50" value="No" style="text;html=1;align=center;verticalAlign=middle;resizable=0;points=[];autosize=1;strokeColor=none;fillColor=none;" parent="1" vertex="1">
                    <mxGeometry x="405" y="-580" width="30" height="20" as="geometry"/>
                </mxCell>
                <mxCell id="52" value="" style="edgeStyle=none;html=1;fontSize=12;" parent="1" source="53" target="63" edge="1">
                    <mxGeometry relative="1" as="geometry"/>
                </mxCell>
                <mxCell id="53" value="PrintStringArray( stringArray )" style="shape=process;whiteSpace=wrap;html=1;backgroundOutline=1;size=0.03225806451612903;" parent="1" vertex="1">
                    <mxGeometry x="30" y="-281" width="310" height="40" as="geometry"/>
                </mxCell>
                <mxCell id="54" value="" style="edgeStyle=none;html=1;" parent="1" source="55" edge="1">
                    <mxGeometry relative="1" as="geometry">
                        <mxPoint x="185" y="-281" as="targetPoint"/>
                    </mxGeometry>
                </mxCell>
                <mxCell id="55" value="Start" style="ellipse;whiteSpace=wrap;html=1;" parent="1" vertex="1">
                    <mxGeometry x="125" y="-330" width="120" height="29" as="geometry"/>
                </mxCell>
                <mxCell id="56" value="" style="edgeStyle=none;html=1;fontSize=12;entryX=1;entryY=0.5;entryDx=0;entryDy=0;" parent="1" source="58" target="72" edge="1">
                    <mxGeometry relative="1" as="geometry">
                        <Array as="points">
                            <mxPoint x="330" y="-141"/>
                            <mxPoint x="330" y="-31"/>
                            <mxPoint x="330" y="74"/>
                        </Array>
                        <mxPoint x="270" y="69" as="targetPoint"/>
                    </mxGeometry>
                </mxCell>
                <mxCell id="57" value="" style="edgeStyle=none;html=1;fontSize=12;" parent="1" source="58" target="60" edge="1">
                    <mxGeometry relative="1" as="geometry"/>
                </mxCell>
                <mxCell id="58" value="i = 0; i &amp;lt; stringArray.Length; i++" style="shape=hexagon;perimeter=hexagonPerimeter2;whiteSpace=wrap;html=1;fixedSize=1;labelBackgroundColor=none;fontSize=12;" parent="1" vertex="1">
                    <mxGeometry x="60" y="-161" width="250" height="40" as="geometry"/>
                </mxCell>
                <mxCell id="59" value="" style="edgeStyle=none;html=1;fontSize=12;" parent="1" source="60" target="66" edge="1">
                    <mxGeometry relative="1" as="geometry"/>
                </mxCell>
                <mxCell id="60" value="&quot;stringArray[ i ]&quot;" style="shape=parallelogram;perimeter=parallelogramPerimeter;whiteSpace=wrap;html=1;fixedSize=1;labelBackgroundColor=none;" parent="1" vertex="1">
                    <mxGeometry x="90" y="-91" width="190" height="30" as="geometry"/>
                </mxCell>
                <mxCell id="61" value="End" style="ellipse;whiteSpace=wrap;html=1;" parent="1" vertex="1">
                    <mxGeometry x="125" y="119" width="120" height="30" as="geometry"/>
                </mxCell>
                <mxCell id="62" value="" style="edgeStyle=none;html=1;fontSize=12;" parent="1" source="63" target="58" edge="1">
                    <mxGeometry relative="1" as="geometry"/>
                </mxCell>
                <mxCell id="63" value="[" style="shape=parallelogram;perimeter=parallelogramPerimeter;whiteSpace=wrap;html=1;fixedSize=1;labelBackgroundColor=none;fontSize=12;" parent="1" vertex="1">
                    <mxGeometry x="125" y="-221" width="120" height="40" as="geometry"/>
                </mxCell>
                <mxCell id="64" value="" style="edgeStyle=none;html=1;fontSize=12;" parent="1" source="66" target="68" edge="1">
                    <mxGeometry relative="1" as="geometry"/>
                </mxCell>
                <mxCell id="65" style="edgeStyle=none;html=1;entryX=0;entryY=0.5;entryDx=0;entryDy=0;fontSize=12;exitX=0;exitY=0.5;exitDx=0;exitDy=0;" parent="1" source="66" target="58" edge="1">
                    <mxGeometry relative="1" as="geometry">
                        <Array as="points">
                            <mxPoint x="30" y="-21"/>
                            <mxPoint x="30" y="-81"/>
                            <mxPoint x="30" y="-141"/>
                        </Array>
                    </mxGeometry>
                </mxCell>
                <mxCell id="66" value="i ==&amp;nbsp;&amp;nbsp;stringArray.Length - 1" style="rhombus;whiteSpace=wrap;html=1;labelBackgroundColor=none;" parent="1" vertex="1">
                    <mxGeometry x="60" y="-41" width="250" height="40" as="geometry"/>
                </mxCell>
                <mxCell id="67" style="edgeStyle=none;html=1;entryX=0;entryY=0.5;entryDx=0;entryDy=0;fontSize=12;exitX=0;exitY=0.5;exitDx=0;exitDy=0;" parent="1" source="68" target="58" edge="1">
                    <mxGeometry relative="1" as="geometry">
                        <Array as="points">
                            <mxPoint x="30" y="34"/>
                            <mxPoint x="30" y="-1"/>
                            <mxPoint x="30" y="-141"/>
                        </Array>
                    </mxGeometry>
                </mxCell>
                <mxCell id="68" value="," style="shape=parallelogram;perimeter=parallelogramPerimeter;whiteSpace=wrap;html=1;fixedSize=1;labelBackgroundColor=none;fontSize=12;" parent="1" vertex="1">
                    <mxGeometry x="125" y="19" width="120" height="30" as="geometry"/>
                </mxCell>
                <mxCell id="69" value="No" style="text;html=1;align=center;verticalAlign=middle;resizable=0;points=[];autosize=1;strokeColor=none;fillColor=none;fontSize=12;" parent="1" vertex="1">
                    <mxGeometry x="220" y="-1" width="30" height="20" as="geometry"/>
                </mxCell>
                <mxCell id="70" value="Yes" style="text;html=1;align=center;verticalAlign=middle;resizable=0;points=[];autosize=1;strokeColor=none;fillColor=none;fontSize=12;" parent="1" vertex="1">
                    <mxGeometry x="30" y="-51" width="40" height="20" as="geometry"/>
                </mxCell>
                <mxCell id="71" value="" style="edgeStyle=none;html=1;fontSize=12;" parent="1" source="72" target="61" edge="1">
                    <mxGeometry relative="1" as="geometry"/>
                </mxCell>
                <mxCell id="72" value="]" style="shape=parallelogram;perimeter=parallelogramPerimeter;whiteSpace=wrap;html=1;fixedSize=1;labelBackgroundColor=none;fontSize=12;" parent="1" vertex="1">
                    <mxGeometry x="125" y="59" width="120" height="30" as="geometry"/>
                </mxCell>
                <mxCell id="73" value="" style="edgeStyle=none;html=1;fontSize=12;" parent="1" source="74" target="78" edge="1">
                    <mxGeometry relative="1" as="geometry"/>
                </mxCell>
                <mxCell id="74" value="CreateArrayWithSizeLessOrEqual3&lt;br&gt;( stringArray, sizeNewArray )" style="shape=process;whiteSpace=wrap;html=1;backgroundOutline=1;size=0.03389830508474576;" parent="1" vertex="1">
                    <mxGeometry x="400" y="-261" width="310" height="41" as="geometry"/>
                </mxCell>
                <mxCell id="75" value="" style="edgeStyle=none;html=1;fontSize=12;" parent="1" source="76" target="74" edge="1">
                    <mxGeometry relative="1" as="geometry"/>
                </mxCell>
                <mxCell id="76" value="Start" style="ellipse;whiteSpace=wrap;html=1;" parent="1" vertex="1">
                    <mxGeometry x="495" y="-311" width="120" height="30" as="geometry"/>
                </mxCell>
                <mxCell id="77" value="" style="edgeStyle=none;html=1;fontSize=12;" parent="1" source="78" target="81" edge="1">
                    <mxGeometry relative="1" as="geometry"/>
                </mxCell>
                <mxCell id="78" value="&lt;span&gt;string[] newStringArray = new string [&lt;/span&gt;sizeNewArray&lt;span&gt;]&lt;br&gt;j = 0;&lt;br&gt;&lt;/span&gt;" style="whiteSpace=wrap;html=1;" parent="1" vertex="1">
                    <mxGeometry x="400" y="-201" width="310" height="40" as="geometry"/>
                </mxCell>
                <mxCell id="79" value="" style="edgeStyle=none;html=1;fontSize=12;" parent="1" source="81" target="84" edge="1">
                    <mxGeometry relative="1" as="geometry"/>
                </mxCell>
                <mxCell id="80" value="" style="edgeStyle=none;html=1;fontSize=12;" parent="1" source="81" target="90" edge="1">
                    <mxGeometry relative="1" as="geometry">
                        <Array as="points">
                            <mxPoint x="700" y="-121"/>
                            <mxPoint x="700" y="-31"/>
                            <mxPoint x="700" y="79"/>
                        </Array>
                    </mxGeometry>
                </mxCell>
                <mxCell id="81" value="i = 0; i &amp;lt; stringArray.Length; i++" style="shape=hexagon;perimeter=hexagonPerimeter2;whiteSpace=wrap;html=1;fixedSize=1;labelBackgroundColor=none;fontSize=12;" parent="1" vertex="1">
                    <mxGeometry x="450" y="-141" width="210" height="40" as="geometry"/>
                </mxCell>
                <mxCell id="82" value="" style="edgeStyle=none;html=1;fontSize=12;" parent="1" source="84" target="86" edge="1">
                    <mxGeometry relative="1" as="geometry"/>
                </mxCell>
                <mxCell id="83" style="edgeStyle=none;html=1;fontSize=12;exitX=0;exitY=0.5;exitDx=0;exitDy=0;entryX=0;entryY=0.5;entryDx=0;entryDy=0;" parent="1" source="84" target="81" edge="1">
                    <mxGeometry relative="1" as="geometry">
                        <mxPoint x="440" y="-121" as="targetPoint"/>
                        <Array as="points">
                            <mxPoint x="410" y="-46"/>
                            <mxPoint x="410" y="-121"/>
                        </Array>
                    </mxGeometry>
                </mxCell>
                <mxCell id="84" value="stringArray[ i ].Length &amp;lt;4&amp;nbsp;" style="rhombus;whiteSpace=wrap;html=1;labelBackgroundColor=none;" parent="1" vertex="1">
                    <mxGeometry x="440" y="-71" width="230" height="50" as="geometry"/>
                </mxCell>
                <mxCell id="85" style="edgeStyle=none;html=1;entryX=0;entryY=0.5;entryDx=0;entryDy=0;fontSize=12;exitX=0;exitY=0.5;exitDx=0;exitDy=0;" parent="1" source="86" target="81" edge="1">
                    <mxGeometry relative="1" as="geometry">
                        <Array as="points">
                            <mxPoint x="410" y="19"/>
                            <mxPoint x="410" y="-31"/>
                            <mxPoint x="410" y="-81"/>
                            <mxPoint x="410" y="-121"/>
                        </Array>
                    </mxGeometry>
                </mxCell>
                <mxCell id="86" value="newStringArray[ j ] = stringArray[ i ]&lt;br&gt;j++" style="whiteSpace=wrap;html=1;labelBackgroundColor=none;" parent="1" vertex="1">
                    <mxGeometry x="450" y="-1" width="210" height="40" as="geometry"/>
                </mxCell>
                <mxCell id="87" value="Yes" style="text;html=1;strokeColor=none;fillColor=none;align=center;verticalAlign=middle;whiteSpace=wrap;rounded=0;labelBackgroundColor=none;fontSize=12;" parent="1" vertex="1">
                    <mxGeometry x="550" y="-31" width="60" height="30" as="geometry"/>
                </mxCell>
                <mxCell id="88" value="No" style="text;html=1;align=center;verticalAlign=middle;resizable=0;points=[];autosize=1;strokeColor=none;fillColor=none;fontSize=12;" parent="1" vertex="1">
                    <mxGeometry x="415" y="-71" width="30" height="20" as="geometry"/>
                </mxCell>
                <mxCell id="89" value="" style="edgeStyle=none;html=1;fontSize=12;" parent="1" source="90" target="91" edge="1">
                    <mxGeometry relative="1" as="geometry"/>
                </mxCell>
                <mxCell id="90" value="return newStringArray" style="shape=parallelogram;perimeter=parallelogramPerimeter;whiteSpace=wrap;html=1;fixedSize=1;labelBackgroundColor=none;" parent="1" vertex="1">
                    <mxGeometry x="460" y="59" width="190" height="40" as="geometry"/>
                </mxCell>
                <mxCell id="91" value="End" style="ellipse;whiteSpace=wrap;html=1;" parent="1" vertex="1">
                    <mxGeometry x="495" y="119" width="120" height="30" as="geometry"/>
                </mxCell>
            </root>
        </mxGraphModel>
    </diagram>
</mxfile>